<svg xmlns="http://www.w3.org/2000/svg" viewBox="-75.114 -6.971 2198 2198">
    <path d="M538.087 818.833c-2.878-103.652 23.22-220.507 76.355-310.328a451.2 451.2 0 0 1 73.763-93.336A542.96 542.96 0 0 1 987.55 268.184c23.2-3.462 49.92-6.457 73.31-5.9 310.14 7.383 513.83 244.129 505.29 549.591 26.41-4.375 50.41-10.956 76.43-16.297a1876 1876 0 0 1 146.89-24.878c38.26-4.796 57.8-7.595 96.84-3.388 60.52 5.069 119.02 28.338 144.52 87.666 4.39 10.229 11.63 37.925 17.05 44.653v52.696c-5.5 8.178-11.11 31.48-14.81 42.267a260 260 0 0 1-20.26 45.426c-41.38 73.89-104.39 137.86-158.95 202.14-17.97 21.18-39.27 40.89-57.02 61.53-26.98 33.51-57.99 62.7-88.37 93.04-6.52 6.5-11.18 15.67-17.96 22.41-33.13 32.93-83.86 77.03-102.86 120.17-14.9 33.85-6.79 96.71-9.41 133.43-.26 49.15-3.01 96.55-3.53 145.03l-.43 71.17c-.29 18.54 2.12 36.51-8.46 52.39-14.13 7.04-30.73 7.09-38.31-9.07-7.64 2.63-19.27 3.56-27.54 4.9-67.36 10.84-134.74 14.91-202.65 19.63a3966.6 3966.6 0 0 1-580.837-3.7c-41.01-3.45-81.957-7.62-122.821-12.5-20.484-2.5-40.419-5.98-61.048-7.92l-2.193.36c-6.235 7.59-16.223 16.16-26.912 13.13-7.081-2.16-14.88-6.96-16.639-14.68-5.658-24.77-1.466-51.62-2.859-76.82-4.088-73.9-2.276-147.89-5.55-221.82-1.456-32.87.84-64.84-9.859-96.94-6.519-19.56-19.671-34.09-33.433-48.86-14.577-16.77-29.027-32.66-44.867-48.38a3436 3436 0 0 1-129.291-132.98c-65.284-70.65-130.884-143.94-190.269-219.63-10.129-12.91-20.022-27.66-28.88-41.5a313 313 0 0 1-29.205-58.044c-2.373-6.359-7.61-25.852-9.768-29.45l-3.003.094v-48.841c1.15-.737 2.721-1.671 3.073-3.143 8.627-36.006 23.116-68.881 52.282-93.04 36.744-30.436 82.893-42.325 129.549-46.999 21.963-2.2 44.125 1.325 66.078 3.409a1696 1696 0 0 1 191.145 29.447c25.798 5.626 70.025 17.975 94.672 20.702zm48.936-72.622c-1.347 28.038-3.454 50.177-2.658 78.352 3.046 107.857 39.717 222.407 113.471 303.057 65.019 71.1 147.909 117.35 241.546 139.38 28.172 6.63 59.084 12.63 88.228 13.83 43.36 1.79 87-.3 129.83-7.75 9.38-1.63 24.35-5.98 33.99-8.46 13.43-2.07 31.15-8.96 44.11-14.01a435 435 0 0 0 190.19-145.95c44.9-61.22 70.33-121.661 84.9-196.232 11.69-59.832 10.85-107.749 6.25-168.252-16.98 2.48-47.74 3.475-65.28 4.186a818.14 818.14 0 0 1-452.39-114.118c-29.678-17.607-58.172-35.472-85.57-56.531-3.341-2.569-8.041-6.417-12.174-7.194-19.195 27.323-34.846 38.667-58.579 59.898-71.343 63.819-155.38 114.082-252.998 119.792zm984.047 285.459c-19.48 2.42-31.08 6.12-52.4 7.6-12.94 26.09-53.062 92.542-53.062 92.542 28.88-16.13 88.972-70.082 107.352-97.952l.19-2.21c-.69.01-1.38.01-2.08.02m-1070.438-9.77c2.227 6.37 7.827 9.65 12.169 15.43 34.343 45.69 89.107 87.47 139.957 114.21-16.118-21.46-32.684-48.5-47.047-71.38-7.15-11.39-16.139-33.1-23.049-42.8zm769.638 266.05c-11.91 4.48-24.35 7.79-36.21 11.72-114.82 37.99-234.124 35.82-349.263.11-22.935-7.11-47.208-13.57-69.467-23.22-1.471-.64-1.784-.86-3.336-1.37 2.947 14.28 4.16 25.92 8.296 40.3a207.63 207.63 0 0 0 84.713 116.18c58.879 38.83 142.947 49.3 210.467 33.63 50.59-11.74 78.89-35.45 111.5-72.73 27.74-36.29 34.02-61.22 43.3-104.62"/>
    <path fill="#f5c9a0" d="M587.137 746.039c-1.347 28.038-3.454 50.177-2.658 78.352 3.046 107.857 39.717 222.409 113.471 303.059 65.019 71.1 147.909 117.35 241.546 139.38 28.172 6.63 59.084 12.63 88.234 13.83 43.36 1.79 87-.3 129.83-7.75 9.38-1.63 24.35-5.98 33.99-8.46 13.43-2.07 31.15-8.96 44.11-14.01a435 435 0 0 0 190.19-145.95c44.9-61.22 70.33-121.663 84.9-196.234 11.69-59.832 10.85-107.749 6.25-168.252-16.98 2.48-47.74 3.475-65.28 4.186a818.17 818.17 0 0 1-452.396-114.118c-29.678-17.607-58.172-35.472-85.57-56.531-3.341-2.569-8.041-6.417-12.174-7.194-19.195 27.323-34.846 38.667-58.579 59.898-71.343 63.819-155.38 114.082-252.998 119.792zm683.253 541.741c-11.91 4.48-24.35 7.79-36.21 11.72-114.82 37.99-234.13 35.82-349.269.11-22.935-7.11-47.208-13.57-69.467-23.22-1.471-.64-1.784-.86-3.336-1.37 2.947 14.28 4.16 25.92 8.296 40.3a207.63 207.63 0 0 0 84.713 116.18c58.879 38.83 142.953 49.3 210.473 33.63 50.59-11.74 78.89-35.45 111.5-72.73 27.74-36.29 34.02-61.22 43.3-104.62"/>
    <path fill="#00b361" d="M311.58 1290.19a5114 5114 0 0 1 122.593-114.7 5270 5270 0 0 0 47.269-43.13c8.132-7.53 20.67-18.73 27.625-26.95 43.995 46.73 125.179 95.12 184.072 120.27 16.864 7.19 53.393 16.69 64.175 24.38 4.764 13.07 4.51 28.57 7.373 42.25 10.861 51.88 32.159 99.21 68.504 138.26 51.122 54.92 124.946 85.99 199.669 88.45 137.83 4.53 239.03-61.17 278.15-196.17 3.39-11.69 11.41-58.4 16.79-64.38 5.2-5.77 86.07-41.45 100.94-48.75a587 587 0 0 0 43.92-23.52c38.87-22.99 69.59-48.79 102.51-79.68 18.16 19.61 54.66 51.52 74.95 69.66 36.59 32.15 72.58 64.99 107.95 98.49-29.3 30.13-58.27 61.32-87.79 92.65-41.51 44.06-101.08 100.74-126.44 155.97-13.46 29.32-12.02 97.76-12.69 131.31-1.1 43.78-1.81 87.57-2.12 131.37-.34 46.65-3.52 99.93-1.4 146.12-7.64 2.63-19.27 3.56-27.54 4.9-67.36 10.84-134.74 14.91-202.65 19.63a3967 3967 0 0 1-580.843-3.7c-41.01-3.45-81.957-7.62-122.821-12.5-20.484-2.5-40.419-5.98-61.048-7.92l-1.866-1.04c-1.358-2.35.327-51.41.255-57.45-.642-53.68-2.771-107.37-3.93-161.03-.774-35.87-.193-71.78-1.481-107.64-1.316-36.66-6.185-76.81-23.244-109.86-11.51-22.3-31.934-40.95-49.028-59.09l-58.325-60.92c-26.268-27.15-55.943-59.65-83.529-85.28"/>
    <path d="M918.447 1046.27c25.879-1.2 26.115 15.14 41.407 29.84 41.856 40.23 123.756 40.85 168.786 5.62 11.93-9.33 18.27-31.13 34.5-35.51 10.92-2.55 28.3 7.75 29.03 19.78 1.54 14.59-4.19 23.83-12.01 34.82-9.49 13.62-31.51 28.56-46.19 36.1-46.21 23.73-95.17 27.29-144.444 11.67-32.213-10.98-68.461-29.74-84.702-61.25-9.298-18.03-4.11-32.55 13.623-41.07M757.194 826.187c3.973-.239 8.809-.927 12.7-.035 21.695 4.973 20.49 39.152 53.338 51.415 11.994 4.477 22.371 4.113 34.937 4.082 64.375-.16 42.5-40.575 70.444-51.916 5.604-2.275 13.726-2.977 19.366-.501 5.969 2.62 11.385 7.716 13.461 13.985 4.196 12.671-2.938 27.666-8.552 38.886-32.056 57.197-121.409 60.969-171.321 28.442-23.185-15.108-48.323-41.814-38.096-72.36 2.132-6.365 8.062-9.738 13.723-11.998m395.786-1.988c24.16-1.417 26.64 23.145 36.46 37.86 17.54 22.358 55.17 20.836 79.51 15.617 36.24-7.769 25.2-37.388 49.75-51.902 15.21-.43 18.72-.223 29.55 9.769 7.02 19.243 1.04 32.93-9.13 49.102-37.32 47.372-109.02 57.46-160.99 29.352-19.59-10.913-37.81-28.629-44.15-50.685-5.75-20.015-2.56-33.733 19-39.113"/>
    <path fill="#006dd3" d="M1038.64 312.457c108.82-2.093 193 19.022 283.3 81.098 106.42 73.157 165.87 173.572 187.01 299.291-71.53 6.697-150.76 6.374-221.45-6.608-31.62-4.45-76.37-17.191-107.07-26.929-65.6-20.807-132.34-55.32-190.553-91.758-17.318-10.84-41.084-25.664-56.792-38.816-26.173-21.916-52.476-49.394-75.826-74.381-18.256-19.536-41.462-44.257-53.636-67.85a451.6 451.6 0 0 1 235.017-74.047"/>
    <path fill="#fee14c" d="M201.767 814.466c45.814-.661 88.239 4.871 133.13 12.294 48.848 8.076 96.612 15.344 144.604 27.851 19.117 4.982 41.256 8.389 59.833 14.445 3.963 27.118 9.468 55.612 16.117 82.255 3.091 12.384 6.169 23.808 8.497 36.396-33.396-4.98-61.271-14.975-93.792-22.396-10.689-1.818-22.629-2.866-31.74 3.909-8.474 6.303-16.368 20.18-10.514 30.43 13.696 23.99 30.413 47.25 46.984 69.42a2673 2673 0 0 1-87.676 82.69c-34.399 31.06-75.195 68.97-108.243 101.66-9.421-12.49-25.488-28.22-36.136-40.26-35.211-39.81-70.7-78.3-104.713-119.23-53.705-64-128.552-157.868-59.242-238.173 28.928-33.516 81.653-39.835 122.891-41.291m1635.343-.047c36.1-4.146 107.02 3.384 131.47 31.035 92.96 105.125-41.03 235.496-107.23 314.436-22.92 27.32-45.91 52.74-68.89 76.32l-83.8-75.26c-34.6-30.84-66.81-60.64-100.62-92.14 13.12-14.64 25.1-32.05 37.73-47.24 5.15-6.2 12.58-17.48 10.68-25.866-9.24-40.718-56.4-17.283-82.7-12.645-12.41 2.253-24.78 4.474-37.27 6.532 14.31-35.524 21.23-89.265 28.46-127.322a2648 2648 0 0 1 108.63-24.575c14.39-3.025 29.38-6.929 43.73-9.378 39.68-6.65 79.66-11.288 119.81-13.897"/>
    <path fill="#006dd3" d="M760.297 415.96c2.458 2.697 5.503 7.79 7.805 10.916 18.526 25.153 40.63 47.297 62.581 69.45 11.625 11.731 23.074 25.22 35.36 36.22-11.438 11.474-22.239 23.964-34.014 35.498-45.078 44.156-88.675 83.064-146.756 108.949-32.72 13.013-53.205 17.64-88.205 19.518 2.917-17.092 6.285-40.859 10.942-56.99 26.388-91.405 78.812-164.504 152.287-223.561"/>
    <!-- Z letters: white fill with same black outline as the character body -->
    <path fill="#ffffff" stroke="#000000" stroke-width="30" stroke-linejoin="round" stroke-linecap="round" d="M107.697 84.431q65.522-.564 131.048-.337c22.091.01 43.848-.144 66.233.365 20.612.47 44.08 13.475 32.233 37.128-6.469 13.377-19.498 22.855-28.255 34.053-27.117 34.649-62.657 62.436-90.398 96.553-5.824 7.162-50.011 53.396-51.258 58.023 3.252 1.643 20.485 1.356 25.123 1.405l78.017.35c21.231.061 69.211-5.228 75.592 20.956a28.2 28.2 0 0 1-3.877 22.134c-5.783 8.633-13.532 12.543-23.238 14.745-18.936 2.574-44.053 1.389-63.51 1.446-47.482.141-95.155.269-142.628-.252-12.079-.133-28.102-3.261-36.099-12.986-9.766-11.876-7.048-29.634 2.816-40.699 26.659-28.331 53.524-56.564 80.057-85.132l51.213-55.914c10.032-11.069 18.761-23.399 30.546-32.192l-79.675-.202c-24.579.022-64.373 3.682-84.52-11.006-9.406-18.661-8.447-38.045 14.096-46.258 4.467-1.628 11.602-1.803 16.484-2.18m173.104 355.984c19.82-.669 44.732-.873 66.909-.311 34.254 2.359 82.521-5.338 114.767 7.998 24.908 10.302-.057 44.012-9.548 54.81-29.458 33.517-58.561 66.006-88.412 99.031-6.911 7.645-20.966 21.101-25.924 28.951l.577 1.531c4.539 1.146 18.31-.343 24.163-.256 26.419.39 54.536-1.535 80.733 1.758 14.715 1.849 22.257 7.162 30.648 18.351 4.67 29.024-11.98 34.303-36.463 37.335-21.702 1.652-45.118.299-66.981.751-19.218-.185-36.99.061-56.342-.129-17.012-.167-45.116 1.609-59.951-8.052-11.695-9.363-11.444-25.27-3.226-36.402 8.85-11.987 17.947-22.122 27.817-32.719 35.585-38.207 72.107-76.237 105.227-116.595a1329 1329 0 0 0-68.806-.811c-14.409.096-48.271 2.378-60.222-6.326a24.2 24.2 0 0 1-9.747-17.176c-.603-6.301 2.755-15.583 6.816-20.33 7.847-9.172 16.994-10.368 27.965-11.409"/>
</svg>
